<?xml version="1.0" encoding="utf-8"?>
<!-- Generator: Adobe Illustrator 25.4.1, SVG Export Plug-In . SVG Version: 6.00 Build 0)  -->
<svg version="1.1" id="layer_1" xmlns="http://www.w3.org/2000/svg" xmlns:xlink="http://www.w3.org/1999/xlink" x="0px" y="0px"
	 viewBox="0 0 400 400" style="enable-background:new 0 0 400 400;" xml:space="preserve">
<style type="text/css">
	.st0{fill:#FFFFFF;}
</style>
<path class="st0" d="M185.05,141.48c0.39,0.39,0.39,1.02,0,1.41c-0.2,0.2-0.45,0.29-0.71,0.29c-0.26,0-0.51-0.1-0.71-0.29l-4.4-4.4
	c-1.36,1.05-3.05,1.69-4.9,1.69c-4.41,0-8-3.59-8-8c0-4.41,3.59-8,8-8c4.41,0,8,3.59,8,8c0,1.85-0.63,3.54-1.69,4.9L185.05,141.48z
	 M180.35,132.18c0-3.31-2.69-6-6-6s-6,2.69-6,6c0,3.31,2.69,6,6,6S180.35,135.49,180.35,132.18z"/>
</svg>
